<svg width="40" height="40" viewBox="0 0 40 40" fill="none" xmlns="http://www.w3.org/2000/svg">
<rect width="40" height="40" rx="20" fill="#09B451"/>
<g clip-path="url(#clip0_2102_1100)">
<path d="M18.5428 31.9098C16.4023 31.6323 14.1988 30.7143 12.5938 29.4296C8.98029 26.5466 7.34004 21.9918 8.27754 17.4686C8.67954 15.5156 9.72654 13.4606 11.0668 11.9801C12.0541 10.869 13.2447 9.95685 14.5745 9.29284C16.34 8.39809 18.0275 7.99609 20.0195 7.99609C21.449 7.99609 22.598 8.18359 23.9143 8.63284C25.6435 9.22598 27.2144 10.2061 28.5074 11.4984C29.8004 12.7907 30.7813 14.3612 31.3753 16.0901C32.0788 18.1526 32.207 20.3478 31.7578 22.5236C31.3985 24.2426 30.4723 26.1761 29.3323 27.5741C28.8635 28.1523 27.785 29.1836 27.2188 29.6013C25.5248 30.8595 23.5325 31.655 21.4378 31.9098C20.8205 31.9878 19.1405 31.9841 18.5435 31.9098H18.5428ZM21.8128 30.9063C24.7365 30.4163 27.3459 28.7849 29.0668 26.3711C31.094 23.5233 31.637 19.7028 30.4925 16.3713C30.2233 15.5898 29.555 14.2856 29.0668 13.5978C28.5238 12.8283 27.1798 11.4806 26.4065 10.9376C25.6565 10.4066 24.3793 9.76159 23.5078 9.47659C21.9347 8.95395 20.2642 8.79145 18.6198 9.0011C16.9755 9.21075 15.3992 9.7872 14.0075 10.6878C12.6982 11.548 11.5789 12.6672 10.7188 13.9766C9.81837 15.3675 9.24204 16.943 9.03239 18.5866C8.82273 20.2302 8.98512 21.8999 9.50754 23.4723C9.79629 24.3431 10.4413 25.6248 10.9685 26.3748C11.5153 27.1443 12.8593 28.4921 13.6288 29.0351C14.3203 29.5196 15.6208 30.1871 16.4023 30.4608C18.1418 31.0518 20.0001 31.2048 21.8128 30.9063V30.9063ZM17.6563 26.8826C17.0956 26.7981 16.5576 26.6014 16.0745 26.3043C15.641 26.0268 12.3673 22.8198 12.2075 22.5191C12.0238 22.1756 12.344 21.5501 12.8015 21.3588L13.016 21.2688L12.356 20.5968C11.993 20.2256 11.6488 19.8311 11.594 19.7216C11.465 19.4718 11.4613 18.9363 11.582 18.6978C11.633 18.6003 11.7538 18.4518 11.8475 18.3693C12.008 18.2366 12.023 18.1893 12.008 17.8533C11.9885 17.5563 12.0155 17.4393 12.1445 17.2166C12.332 16.8963 12.719 16.6811 13.0978 16.6773C13.3085 16.6773 13.3633 16.6503 13.4533 16.4936C13.688 16.0833 14.3593 15.9348 14.8715 16.1853L15.149 16.3181L15.2855 16.1853C15.473 16.0136 15.848 15.8613 16.094 15.8613C16.586 15.8613 17.2813 16.4276 17.2813 16.8258C17.2813 17.3021 16.8478 17.3846 16.418 16.9901C16.133 16.7246 15.9883 16.6968 15.8713 16.8843C15.8128 16.9743 15.953 17.1423 16.793 17.9898C17.633 18.8336 17.7853 19.0136 17.7853 19.1733C17.7787 19.2958 17.7265 19.4114 17.6391 19.4974C17.5517 19.5834 17.4353 19.6337 17.3128 19.6383C17.1605 19.6383 16.9108 19.4193 15.758 18.2711C14.582 17.0988 14.3675 16.9113 14.2738 16.9706C14.0195 17.1311 14.1058 17.2481 15.4805 18.6266C16.2268 19.3766 16.8403 20.0403 16.8403 20.1033C16.8403 20.2323 16.7233 20.4708 16.6258 20.5331C16.5458 20.5682 16.4588 20.5844 16.3715 20.5803C16.211 20.5841 15.965 20.3613 14.657 19.0571C13.3445 17.7521 13.1098 17.5413 13.016 17.5998C12.758 17.7641 12.8443 17.8773 14.3405 19.3811C15.1573 20.1978 15.8405 20.9283 15.86 21.0063C15.9028 21.1473 15.809 21.3933 15.6845 21.4788C15.6019 21.514 15.5125 21.5301 15.4228 21.5261C15.2623 21.5261 15.0598 21.3506 13.9775 20.2683C12.9343 19.2251 12.692 19.0106 12.5593 19.0226C12.1843 19.0653 12.317 19.2333 14.2543 21.1751C15.9343 22.8588 16.1488 23.0973 16.1488 23.2728C16.1505 23.3373 16.136 23.4011 16.1066 23.4585C16.0773 23.5159 16.034 23.565 15.9808 23.6013C15.68 23.8398 15.563 23.7851 14.8048 23.0508C14.4178 22.6796 14.0195 22.3203 13.9138 22.2536C13.7225 22.1366 13.238 22.0856 13.148 22.1793C13.1165 22.2063 13.8313 22.9608 14.7343 23.8548C16.238 25.3428 16.4098 25.4958 16.8515 25.7066C17.2585 25.9092 17.7067 26.0153 18.1613 26.0166C18.6159 26.0179 19.0647 25.9144 19.4728 25.7141C20.7343 25.1126 21.434 23.6516 21.0898 22.3271C20.918 21.6671 20.7028 21.3506 19.8358 20.4558C18.836 19.4321 18.605 19.1508 18.359 18.6588C18.0853 18.1083 17.9683 17.5728 17.9683 16.9046C17.9683 16.1816 18.0425 15.8538 18.3628 15.1781C18.6673 14.5338 19.304 13.8581 19.9333 13.5101C21.1678 12.8223 22.793 12.8808 23.972 13.6511C24.2068 13.8033 25.0543 14.6006 26.1088 15.6588C27.6755 17.2293 27.8548 17.4326 27.8548 17.6118C27.8548 18.0378 27.5068 18.5103 27.1205 18.6078C26.9758 18.6468 27.0035 18.6858 27.6598 19.3541C28.0423 19.7411 28.3978 20.1588 28.4525 20.2878C28.6363 20.7296 28.5538 21.1586 28.2178 21.5103C28.046 21.6903 28.0228 21.7526 28.0183 22.1118C28.0145 22.4283 27.9793 22.5611 27.854 22.7411C27.7551 22.8875 27.6227 23.0082 27.4677 23.0931C27.3127 23.1781 27.1397 23.2248 26.963 23.2293C26.7208 23.2293 26.6743 23.2526 26.5528 23.4363C26.279 23.8586 25.568 24.0063 25.1075 23.7333L24.8773 23.5968L24.713 23.7573C24.35 24.1053 23.7635 24.1518 23.3188 23.8668C22.9595 23.6403 22.694 23.3238 22.694 23.1243C22.694 22.9488 22.9483 22.6593 23.1043 22.6593C23.2528 22.6593 23.4523 22.7763 23.6788 22.9878C23.9053 23.2023 24.101 23.2023 24.1318 22.9841C24.1475 22.8671 23.96 22.6443 23.2018 21.8823C22.4045 21.0776 22.2523 20.8938 22.2523 20.7378C22.2505 20.6508 22.2666 20.5642 22.2995 20.4836C22.3858 20.3546 22.628 20.2646 22.7758 20.3036C22.8538 20.3231 23.5138 20.9328 24.2368 21.6551C24.9635 22.3818 25.6003 22.9751 25.6588 22.9751C25.8193 22.9751 25.9243 22.8146 25.85 22.6781C25.8148 22.6158 25.2013 21.9866 24.4903 21.2756C23.3773 20.1663 23.1973 19.9593 23.1973 19.7951C23.1936 19.7066 23.2098 19.6185 23.2445 19.5371C23.3113 19.4396 23.5453 19.3226 23.678 19.3226C23.7365 19.3226 24.4708 20.0058 25.3108 20.8421C26.8498 22.3736 26.963 22.4591 27.1235 22.2056C27.182 22.1118 26.9713 21.8733 25.6663 20.5646C24.3185 19.2131 24.1393 19.0098 24.1393 18.8343C24.1393 18.7136 24.194 18.5883 24.2803 18.5103C24.5653 18.2411 24.6515 18.2958 26.0383 19.6743C27.3508 20.9831 27.4678 21.0686 27.6283 20.8188C27.6868 20.7251 27.4213 20.4363 25.7923 18.8028C24.0185 17.0216 23.8903 16.8768 23.8903 16.6698C23.8903 16.3571 24.0703 16.2086 24.4175 16.2326C24.4798 16.2363 24.8548 16.5528 25.2418 16.9316C25.6325 17.3103 26.054 17.6658 26.1793 17.7206C26.4253 17.8218 26.7103 17.8376 26.8318 17.7596C26.9488 17.6853 23.7065 14.4941 23.285 14.2713C22.9236 14.0763 22.5261 13.9573 22.117 13.9216C21.7079 13.8859 21.2958 13.9343 20.9061 14.0639C20.5164 14.1934 20.1573 14.4014 19.8509 14.6749C19.5446 14.9484 19.2975 15.2817 19.1248 15.6543C18.9215 16.0878 18.8945 16.2168 18.8668 16.7756C18.8435 17.3028 18.863 17.4671 18.9763 17.8031C19.1795 18.4008 19.355 18.6468 20.2655 19.5768C21.2503 20.5848 21.4378 20.8151 21.6875 21.3543C22.391 22.8543 22.094 24.5891 20.9338 25.7448C20.051 26.6313 18.848 27.0453 17.6563 26.8818V26.8826Z" fill="white"/>
</g>
<defs>
<clipPath id="clip0_2102_1100">
<rect width="24" height="24" fill="white" transform="translate(8 8)"/>
</clipPath>
</defs>
</svg>
