<svg width="40" height="40" viewBox="0 0 40 40" fill="none" xmlns="http://www.w3.org/2000/svg">
<rect width="40" height="40" rx="20" fill="#09B451"/>
<g clip-path="url(#clip0_2102_1095)">
<path d="M9.5 12.2419C10.8275 11.6869 12.731 11.0884 14.582 10.9024C16.577 10.7014 18.269 10.9969 19.25 12.0304V26.6494C17.8475 25.8544 16.07 25.7449 14.4305 25.9099C12.6605 26.0899 10.8755 26.6014 9.5 27.1264V12.2419ZM20.75 12.0304C21.731 10.9969 23.423 10.7014 25.418 10.9024C27.269 11.0884 29.1725 11.6869 30.5 12.2419V27.1264C29.123 26.6014 27.3395 26.0884 25.5695 25.9114C23.9285 25.7449 22.1525 25.8529 20.75 26.6494V12.0304ZM20 10.6744C18.5225 9.40394 16.3805 9.21494 14.4305 9.40994C12.1595 9.63944 9.8675 10.4179 8.4395 11.0674C8.30847 11.127 8.19736 11.2231 8.11943 11.3441C8.0415 11.4651 8.00004 11.606 8 11.7499V28.2499C8.00003 28.3754 8.03156 28.4989 8.09168 28.6091C8.1518 28.7192 8.23859 28.8125 8.34412 28.8804C8.44964 28.9483 8.57052 28.9887 8.69567 28.9978C8.82083 29.0069 8.94627 28.9844 9.0605 28.9324C10.3835 28.3324 12.515 27.6109 14.5805 27.4024C16.694 27.1894 18.4655 27.5329 19.415 28.7179C19.4853 28.8055 19.5743 28.8762 19.6756 28.9248C19.7768 28.9734 19.8877 28.9986 20 28.9986C20.1123 28.9986 20.2232 28.9734 20.3244 28.9248C20.4257 28.8762 20.5147 28.8055 20.585 28.7179C21.5345 27.5329 23.306 27.1894 25.418 27.4024C27.485 27.6109 29.618 28.3324 30.9395 28.9324C31.0537 28.9844 31.1792 29.0069 31.3043 28.9978C31.4295 28.9887 31.5504 28.9483 31.6559 28.8804C31.7614 28.8125 31.8482 28.7192 31.9083 28.6091C31.9684 28.4989 32 28.3754 32 28.2499V11.7499C32 11.606 31.9585 11.4651 31.8806 11.3441C31.8026 11.2231 31.6915 11.127 31.5605 11.0674C30.1325 10.4179 27.8405 9.63944 25.5695 9.40994C23.6195 9.21344 21.4775 9.40394 20 10.6744Z" fill="white"/>
</g>
<defs>
<clipPath id="clip0_2102_1095">
<rect width="24" height="24" fill="white" transform="translate(8 8)"/>
</clipPath>
</defs>
</svg>
