<svg width="18" height="18" viewBox="0 0 18 18" fill="none" xmlns="http://www.w3.org/2000/svg">
<path d="M15.9627 6.20694L11.4996 5.55831L9.50449 1.51358C9.45 1.40284 9.36035 1.31319 9.24961 1.2587C8.97188 1.12159 8.63438 1.23585 8.49551 1.51358L6.50039 5.55831L2.03731 6.20694C1.91426 6.22452 1.80176 6.28253 1.71563 6.37042C1.6115 6.47744 1.55412 6.62143 1.5561 6.77074C1.55807 6.92006 1.61925 7.06247 1.72617 7.16671L4.95528 10.3149L4.19239 14.7605C4.1745 14.8639 4.18594 14.9702 4.22542 15.0675C4.2649 15.1647 4.33083 15.2489 4.41575 15.3106C4.50066 15.3723 4.60116 15.4089 4.70584 15.4164C4.81052 15.4239 4.9152 15.4018 5.00801 15.3528L9 13.254L12.992 15.3528C13.101 15.4108 13.2275 15.4302 13.3488 15.4091C13.6547 15.3564 13.8604 15.0663 13.8076 14.7605L13.0447 10.3149L16.2738 7.16671C16.3617 7.08057 16.4197 6.96807 16.4373 6.84503C16.4848 6.53741 16.2703 6.25264 15.9627 6.20694V6.20694ZM11.6859 9.87198L12.3205 13.5687L9 11.8249L5.67949 13.5704L6.31406 9.87374L3.62813 7.2546L7.34063 6.71495L9 3.35225L10.6594 6.71495L14.3719 7.2546L11.6859 9.87198Z" fill="#09B451"/>
</svg>
