<svg width="50" height="50" viewBox="0 0 50 50" fill="none" xmlns="http://www.w3.org/2000/svg">
<rect width="50" height="50" rx="25" fill="#DDFFFF"/>
<g clip-path="url(#clip0_2102_1150)">
<path d="M14.5 17.2419C15.8275 16.6869 17.731 16.0884 19.582 15.9024C21.577 15.7014 23.269 15.9969 24.25 17.0304V31.6494C22.8475 30.8544 21.07 30.7449 19.4305 30.9099C17.6605 31.0899 15.8755 31.6014 14.5 32.1264V17.2419ZM25.75 17.0304C26.731 15.9969 28.423 15.7014 30.418 15.9024C32.269 16.0884 34.1725 16.6869 35.5 17.2419V32.1264C34.123 31.6014 32.3395 31.0884 30.5695 30.9114C28.9285 30.7449 27.1525 30.8529 25.75 31.6494V17.0304ZM25 15.6744C23.5225 14.4039 21.3805 14.2149 19.4305 14.4099C17.1595 14.6394 14.8675 15.4179 13.4395 16.0674C13.3085 16.127 13.1974 16.2231 13.1194 16.3441C13.0415 16.4651 13 16.606 13 16.7499V33.2499C13 33.3754 13.0316 33.4989 13.0917 33.6091C13.1518 33.7192 13.2386 33.8125 13.3441 33.8804C13.4496 33.9483 13.5705 33.9887 13.6957 33.9978C13.8208 34.0069 13.9463 33.9844 14.0605 33.9324C15.3835 33.3324 17.515 32.6109 19.5805 32.4024C21.694 32.1894 23.4655 32.5329 24.415 33.7179C24.4853 33.8055 24.5743 33.8762 24.6756 33.9248C24.7768 33.9734 24.8877 33.9986 25 33.9986C25.1123 33.9986 25.2232 33.9734 25.3244 33.9248C25.4257 33.8762 25.5147 33.8055 25.585 33.7179C26.5345 32.5329 28.306 32.1894 30.418 32.4024C32.485 32.6109 34.618 33.3324 35.9395 33.9324C36.0537 33.9844 36.1792 34.0069 36.3043 33.9978C36.4295 33.9887 36.5504 33.9483 36.6559 33.8804C36.7614 33.8125 36.8482 33.7192 36.9083 33.6091C36.9684 33.4989 37 33.3754 37 33.2499V16.7499C37 16.606 36.9585 16.4651 36.8806 16.3441C36.8026 16.2231 36.6915 16.127 36.5605 16.0674C35.1325 15.4179 32.8405 14.6394 30.5695 14.4099C28.6195 14.2134 26.4775 14.4039 25 15.6744Z" fill="#09B451"/>
</g>
<defs>
<clipPath id="clip0_2102_1150">
<rect width="24" height="24" fill="white" transform="translate(13 13)"/>
</clipPath>
</defs>
</svg>
