<svg width="40" height="40" viewBox="0 0 40 40" fill="none" xmlns="http://www.w3.org/2000/svg">
<rect width="40" height="40" rx="20" fill="#09B451"/>
<path d="M17 11C15.6739 11 14.4021 11.5268 13.4645 12.4645C12.5268 13.4021 12 14.6739 12 16C12 17.3261 12.5268 18.5979 13.4645 19.5355C14.4021 20.4732 15.6739 21 17 21C18.3261 21 19.5979 20.4732 20.5355 19.5355C21.4732 18.5979 22 17.3261 22 16C22 14.6739 21.4732 13.4021 20.5355 12.4645C19.5979 11.5268 18.3261 11 17 11V11ZM14 16C14 15.2044 14.3161 14.4413 14.8787 13.8787C15.4413 13.3161 16.2044 13 17 13C17.7956 13 18.5587 13.3161 19.1213 13.8787C19.6839 14.4413 20 15.2044 20 16C20 16.7956 19.6839 17.5587 19.1213 18.1213C18.5587 18.6839 17.7956 19 17 19C16.2044 19 15.4413 18.6839 14.8787 18.1213C14.3161 17.5587 14 16.7956 14 16ZM24.908 16.218C24.6268 16.0747 24.3156 16 24 16V14C24.6315 14 25.2541 14.1496 25.8167 14.4365C26.3793 14.7233 26.866 15.1393 27.2369 15.6504C27.6079 16.1615 27.8526 16.7532 27.9509 17.377C28.0493 18.0008 27.9985 18.639 27.8028 19.2395C27.6072 19.8399 27.2721 20.3855 26.825 20.8316C26.378 21.2776 25.8317 21.6115 25.2308 21.8058C24.6299 22.0002 23.9916 22.0495 23.368 21.9498C22.7444 21.8501 22.1533 21.6041 21.643 21.232L22.821 19.616C23.044 19.7783 23.2982 19.8927 23.5676 19.9521C23.837 20.0114 24.1157 20.0144 24.3863 19.9609C24.6569 19.9073 24.9134 19.7983 25.1399 19.6408C25.3663 19.4833 25.5578 19.2807 25.7021 19.0456C25.8465 18.8106 25.9407 18.5482 25.9787 18.275C26.0168 18.0018 25.998 17.7237 25.9234 17.4582C25.8488 17.1926 25.7201 16.9453 25.5454 16.7319C25.3706 16.5185 25.1536 16.3435 24.908 16.218ZM27.998 29C27.9977 27.9397 27.5764 26.923 26.8267 26.1733C26.077 25.4236 25.0603 25.0023 24 25.002V23C25.5912 23.0003 27.1172 23.6325 28.2423 24.7577C29.3675 25.8828 29.9997 27.4088 30 29H27.998ZM24 29H22C22 27.6739 21.4732 26.4021 20.5355 25.4645C19.5979 24.5268 18.3261 24 17 24C15.6739 24 14.4021 24.5268 13.4645 25.4645C12.5268 26.4021 12 27.6739 12 29H10C10 27.1435 10.7375 25.363 12.0503 24.0503C13.363 22.7375 15.1435 22 17 22C18.8565 22 20.637 22.7375 21.9497 24.0503C23.2625 25.363 24 27.1435 24 29V29Z" fill="white"/>
</svg>
