<svg width="50" height="50" viewBox="0 0 50 50" fill="none" xmlns="http://www.w3.org/2000/svg">
<rect width="50" height="50" rx="25" fill="#DDFFFF"/>
<path d="M22 16C20.6739 16 19.4021 16.5268 18.4645 17.4645C17.5268 18.4021 17 19.6739 17 21C17 22.3261 17.5268 23.5979 18.4645 24.5355C19.4021 25.4732 20.6739 26 22 26C23.3261 26 24.5979 25.4732 25.5355 24.5355C26.4732 23.5979 27 22.3261 27 21C27 19.6739 26.4732 18.4021 25.5355 17.4645C24.5979 16.5268 23.3261 16 22 16V16ZM19 21C19 20.2044 19.3161 19.4413 19.8787 18.8787C20.4413 18.3161 21.2044 18 22 18C22.7956 18 23.5587 18.3161 24.1213 18.8787C24.6839 19.4413 25 20.2044 25 21C25 21.7956 24.6839 22.5587 24.1213 23.1213C23.5587 23.6839 22.7956 24 22 24C21.2044 24 20.4413 23.6839 19.8787 23.1213C19.3161 22.5587 19 21.7956 19 21ZM29.908 21.218C29.6268 21.0747 29.3156 21 29 21V19C29.6315 19 30.2541 19.1496 30.8167 19.4365C31.3793 19.7233 31.866 20.1393 32.2369 20.6504C32.6079 21.1615 32.8526 21.7532 32.9509 22.377C33.0493 23.0008 32.9985 23.639 32.8028 24.2395C32.6072 24.8399 32.2721 25.3855 31.825 25.8316C31.378 26.2776 30.8317 26.6115 30.2308 26.8058C29.6299 27.0002 28.9916 27.0495 28.368 26.9498C27.7444 26.8501 27.1533 26.6041 26.643 26.232L27.821 24.616C28.044 24.7783 28.2982 24.8927 28.5676 24.9521C28.837 25.0114 29.1157 25.0144 29.3863 24.9609C29.6569 24.9073 29.9134 24.7983 30.1399 24.6408C30.3663 24.4833 30.5578 24.2807 30.7021 24.0456C30.8465 23.8106 30.9407 23.5482 30.9787 23.275C31.0168 23.0018 30.998 22.7237 30.9234 22.4582C30.8488 22.1926 30.7201 21.9453 30.5454 21.7319C30.3706 21.5185 30.1536 21.3435 29.908 21.218ZM32.998 34C32.9977 32.9397 32.5764 31.923 31.8267 31.1733C31.077 30.4236 30.0603 30.0023 29 30.002V28C30.5912 28.0003 32.1172 28.6325 33.2423 29.7577C34.3675 30.8828 34.9997 32.4088 35 34H32.998ZM29 34H27C27 32.6739 26.4732 31.4021 25.5355 30.4645C24.5979 29.5268 23.3261 29 22 29C20.6739 29 19.4021 29.5268 18.4645 30.4645C17.5268 31.4021 17 32.6739 17 34H15C15 32.1435 15.7375 30.363 17.0503 29.0503C18.363 27.7375 20.1435 27 22 27C23.8565 27 25.637 27.7375 26.9497 29.0503C28.2625 30.363 29 32.1435 29 34V34Z" fill="#09B451"/>
</svg>
