<svg width="16" height="16" viewBox="0 0 16 16" fill="none" xmlns="http://www.w3.org/2000/svg">
<path d="M5.99998 2C5.11592 2 4.26808 2.35119 3.64296 2.97631C3.01784 3.60143 2.66665 4.44928 2.66665 5.33333C2.66665 6.21739 3.01784 7.06523 3.64296 7.69036C4.26808 8.31548 5.11592 8.66667 5.99998 8.66667C6.88403 8.66667 7.73188 8.31548 8.357 7.69036C8.98212 7.06523 9.33331 6.21739 9.33331 5.33333C9.33331 4.44928 8.98212 3.60143 8.357 2.97631C7.73188 2.35119 6.88403 2 5.99998 2V2ZM3.99998 5.33333C3.99998 4.8029 4.21069 4.29419 4.58577 3.91912C4.96084 3.54405 5.46955 3.33333 5.99998 3.33333C6.53041 3.33333 7.03912 3.54405 7.41419 3.91912C7.78927 4.29419 7.99998 4.8029 7.99998 5.33333C7.99998 5.86377 7.78927 6.37247 7.41419 6.74755C7.03912 7.12262 6.53041 7.33333 5.99998 7.33333C5.46955 7.33333 4.96084 7.12262 4.58577 6.74755C4.21069 6.37247 3.99998 5.86377 3.99998 5.33333ZM11.272 5.47867C11.0845 5.38314 10.8771 5.33333 10.6666 5.33333V4C11.0877 4.00003 11.5027 4.09974 11.8778 4.29098C12.2528 4.48222 12.5773 4.75955 12.8246 5.10028C13.0719 5.44101 13.235 5.83545 13.3006 6.25133C13.3662 6.6672 13.3323 7.0927 13.2019 7.49299C13.0714 7.89328 12.848 8.25699 12.55 8.55437C12.252 8.85174 11.8878 9.07432 11.4872 9.2039C11.0866 9.33347 10.661 9.36636 10.2453 9.29987C9.82957 9.23337 9.43549 9.06939 9.09531 8.82133L9.88065 7.744C10.0293 7.85221 10.1988 7.92849 10.3784 7.96806C10.558 8.00762 10.7438 8.00961 10.9242 7.9739C11.1046 7.93819 11.2756 7.86555 11.4266 7.76055C11.5775 7.65555 11.7052 7.52046 11.8014 7.36376C11.8976 7.20707 11.9604 7.03216 11.9858 6.85003C12.0112 6.6679 11.9986 6.48248 11.9489 6.30544C11.8992 6.1284 11.8134 5.96356 11.6969 5.82128C11.5804 5.67899 11.4357 5.56235 11.272 5.47867ZM13.332 14C13.3318 13.2932 13.0509 12.6153 12.5511 12.1155C12.0513 11.6157 11.3735 11.3348 10.6666 11.3347V10C11.7275 10.0002 12.7448 10.4217 13.4949 11.1718C14.245 11.9219 14.6665 12.9392 14.6666 14H13.332ZM10.6666 14H9.33331C9.33331 13.1159 8.98212 12.2681 8.357 11.643C7.73188 11.0179 6.88403 10.6667 5.99998 10.6667C5.11592 10.6667 4.26808 11.0179 3.64296 11.643C3.01784 12.2681 2.66665 13.1159 2.66665 14H1.33331C1.33331 12.7623 1.82498 11.5753 2.70015 10.7002C3.57532 9.825 4.7623 9.33333 5.99998 9.33333C7.23766 9.33333 8.42464 9.825 9.29981 10.7002C10.175 11.5753 10.6666 12.7623 10.6666 14V14Z" fill="#09B451"/>
</svg>
