<svg width="41" height="41" viewBox="0 0 41 41" fill="none" xmlns="http://www.w3.org/2000/svg">
<rect width="41" height="41" rx="20.5" fill="#E1FFEE"/>
<path d="M15.2285 16.4001V12.8858C15.2285 12.2645 15.4754 11.6685 15.9147 11.2292C16.3541 10.7898 16.95 10.543 17.5714 10.543H22.2571C22.8785 10.543 23.4744 10.7898 23.9138 11.2292C24.3531 11.6685 24.6 12.2645 24.6 12.8858V16.4001H28.1143C28.7356 16.4001 29.3315 16.6469 29.7709 17.0863C30.2103 17.5257 30.4571 18.1216 30.4571 18.743V29.2858C30.4571 29.9072 30.2103 30.5031 29.7709 30.9425C29.3315 31.3818 28.7356 31.6287 28.1143 31.6287H11.7143C11.0929 31.6287 10.497 31.3818 10.0576 30.9425C9.61823 30.5031 9.3714 29.9072 9.3714 29.2858V18.743C9.3714 18.1216 9.61823 17.5257 10.0576 17.0863C10.497 16.6469 11.0929 16.4001 11.7143 16.4001H15.2285ZM11.7143 18.743V29.2858H28.1143V18.743H24.5976V22.2573H22.2571V18.743H17.5714V22.2573H15.2285V18.743H11.7143ZM17.5714 16.4001H22.2571V12.8858H17.5714V16.4001Z" fill="#09B451"/>
</svg>
