<svg width="17" height="18" viewBox="0 0 17 18" fill="none" xmlns="http://www.w3.org/2000/svg">
<path fill-rule="evenodd" clip-rule="evenodd" d="M12.0252 5.63996L8.4884 10.9452L4.95158 5.63996C4.90513 5.57029 4.84542 5.51045 4.77585 5.46386C4.70628 5.41726 4.62821 5.38483 4.5461 5.36841C4.464 5.35199 4.37946 5.3519 4.29732 5.36815C4.21518 5.3844 4.13704 5.41667 4.06737 5.46312C3.99771 5.50956 3.93787 5.56928 3.89127 5.63885C3.84468 5.70842 3.81225 5.78649 3.79583 5.86859C3.77941 5.9507 3.77932 6.03524 3.79557 6.11738C3.81182 6.19952 3.84409 6.27765 3.89053 6.34732L7.89988 12.3613C7.96447 12.4582 8.05199 12.5376 8.15466 12.5926C8.25732 12.6475 8.37196 12.6763 8.4884 12.6763C8.60484 12.6763 8.71948 12.6475 8.82215 12.5926C8.92482 12.5376 9.01233 12.4582 9.07693 12.3613L13.0863 6.34732C13.1327 6.27765 13.165 6.19952 13.1812 6.11738C13.1975 6.03524 13.1974 5.9507 13.181 5.86859C13.1646 5.78649 13.1321 5.70842 13.0855 5.63885C13.0389 5.56928 12.9791 5.50956 12.9094 5.46312C12.8398 5.41667 12.7616 5.3844 12.6795 5.36815C12.5973 5.3519 12.5128 5.35199 12.4307 5.36841C12.3486 5.38483 12.2705 5.41726 12.201 5.46386C12.1314 5.51045 12.0717 5.57029 12.0252 5.63996Z" fill="white"/>
</svg>
