<svg width="1189" height="60" viewBox="0 0 1189 60" fill="none" xmlns="http://www.w3.org/2000/svg">
<rect width="60" height="60" rx="30" transform="matrix(-1 0 0 1 1189 0)" fill="white"/>
<path fill-rule="evenodd" clip-rule="evenodd" d="M1153.06 36.2498L1162.44 29.9998L1153.06 23.7498C1152.94 23.6677 1152.83 23.5622 1152.75 23.4392C1152.67 23.3163 1152.61 23.1783 1152.58 23.0333C1152.55 22.8882 1152.55 22.7388 1152.58 22.5936C1152.61 22.4485 1152.67 22.3104 1152.75 22.1873C1152.83 22.0642 1152.94 21.9584 1153.06 21.8761C1153.18 21.7938 1153.32 21.7364 1153.47 21.7074C1153.61 21.6784 1153.76 21.6783 1153.91 21.707C1154.05 21.7357 1154.19 21.7927 1154.31 21.8748L1164.94 28.9598C1165.11 29.0739 1165.25 29.2286 1165.35 29.41C1165.45 29.5914 1165.5 29.794 1165.5 29.9998C1165.5 30.2055 1165.45 30.4081 1165.35 30.5896C1165.25 30.771 1165.11 30.9256 1164.94 31.0398L1154.31 38.1248C1154.19 38.2069 1154.05 38.2639 1153.91 38.2926C1153.76 38.3213 1153.61 38.3212 1153.47 38.2921C1153.32 38.2631 1153.18 38.2058 1153.06 38.1235C1152.94 38.0411 1152.83 37.9354 1152.75 37.8123C1152.67 37.6892 1152.61 37.5511 1152.58 37.4059C1152.55 37.2608 1152.55 37.1114 1152.58 36.9663C1152.61 36.8212 1152.67 36.6833 1152.75 36.5603C1152.83 36.4374 1152.94 36.3319 1153.06 36.2498V36.2498Z" fill="#09B451"/>
<rect width="60" height="60" rx="30" fill="white"/>
<path fill-rule="evenodd" clip-rule="evenodd" d="M35.9375 36.2498L26.5625 29.9998L35.9375 23.7498C36.0606 23.6677 36.1664 23.5622 36.2487 23.4392C36.331 23.3163 36.3883 23.1783 36.4174 23.0333C36.4464 22.8882 36.4465 22.7388 36.4178 22.5936C36.3891 22.4485 36.3321 22.3104 36.25 22.1873C36.1679 22.0642 36.0624 21.9584 35.9395 21.8761C35.8165 21.7938 35.6786 21.7364 35.5335 21.7074C35.3884 21.6784 35.239 21.6783 35.0939 21.707C34.9487 21.7357 34.8106 21.7927 34.6875 21.8748L24.06 28.9598C23.8888 29.0739 23.7484 29.2286 23.6514 29.41C23.5543 29.5914 23.5035 29.794 23.5035 29.9998C23.5035 30.2055 23.5543 30.4081 23.6514 30.5896C23.7484 30.771 23.8888 30.9256 24.06 31.0398L34.6875 38.1248C34.8106 38.2069 34.9487 38.2639 35.0939 38.2926C35.239 38.3213 35.3884 38.3212 35.5335 38.2921C35.6786 38.2631 35.8165 38.2058 35.9395 38.1235C36.0624 38.0411 36.1679 37.9354 36.25 37.8123C36.3321 37.6892 36.3891 37.5511 36.4178 37.4059C36.4465 37.2608 36.4464 37.1114 36.4174 36.9663C36.3883 36.8212 36.331 36.6833 36.2487 36.5603C36.1664 36.4374 36.0606 36.3319 35.9375 36.2498V36.2498Z" fill="#09B451"/>
</svg>
