<svg width="50" height="50" viewBox="0 0 50 50" fill="none" xmlns="http://www.w3.org/2000/svg">
<rect width="50" height="50" rx="25" fill="#DDFFFF"/>
<path d="M35.1484 22.6562H29.1484C29.0453 22.6562 28.9609 22.7406 28.9609 22.8438V23.9688C28.9609 24.0719 29.0453 24.1562 29.1484 24.1562H35.1484C35.2516 24.1562 35.3359 24.0719 35.3359 23.9688V22.8438C35.3359 22.7406 35.2516 22.6562 35.1484 22.6562ZM32.0078 25.8438H29.1484C29.0453 25.8438 28.9609 25.9281 28.9609 26.0312V27.1562C28.9609 27.2594 29.0453 27.3438 29.1484 27.3438H32.0078C32.1109 27.3438 32.1953 27.2594 32.1953 27.1562V26.0312C32.1953 25.9281 32.1109 25.8438 32.0078 25.8438ZM24.1867 20.5586H23.1719C23.0266 20.5586 22.9094 20.6758 22.9094 20.8211V26.6336C22.9094 26.718 22.9492 26.7953 23.0172 26.8445L26.507 29.3898C26.6242 29.4742 26.7883 29.4508 26.8727 29.3336L27.475 28.5109V28.5086C27.5594 28.3914 27.5336 28.2273 27.4164 28.143L24.4469 25.9961V20.8211C24.4492 20.6758 24.3297 20.5586 24.1867 20.5586V20.5586Z" fill="#09B451"/>
<path d="M31.8625 28.7944H30.5078C30.3766 28.7944 30.2523 28.8623 30.182 28.9748C29.8844 29.4459 29.5375 29.8819 29.1391 30.2803C28.4523 30.967 27.6531 31.5061 26.7648 31.8811C25.8437 32.2701 24.8664 32.467 23.8586 32.467C22.8484 32.467 21.8711 32.2701 20.9523 31.8811C20.0641 31.5061 19.2648 30.967 18.5781 30.2803C17.8914 29.5936 17.3523 28.7944 16.9773 27.9061C16.5883 26.9873 16.3914 26.01 16.3914 24.9998C16.3914 23.9897 16.5883 23.0147 16.9773 22.0936C17.3523 21.2053 17.8914 20.4061 18.5781 19.7194C19.2648 19.0326 20.0641 18.4936 20.9523 18.1186C21.8711 17.7295 22.8508 17.5326 23.8586 17.5326C24.8687 17.5326 25.8461 17.7295 26.7648 18.1186C27.6531 18.4936 28.4523 19.0326 29.1391 19.7194C29.5375 20.1178 29.8844 20.5537 30.182 21.0248C30.2523 21.1373 30.3766 21.2053 30.5078 21.2053H31.8625C32.0242 21.2053 32.1273 21.0366 32.0547 20.8936C30.5266 17.8537 27.4281 15.878 23.9687 15.8381C18.9039 15.7748 14.6969 19.9209 14.6875 24.9811C14.6781 30.0506 18.7867 34.1639 23.8563 34.1639C27.3602 34.1639 30.5102 32.1811 32.0547 29.1061C32.1273 28.9631 32.0219 28.7944 31.8625 28.7944V28.7944Z" fill="#09B451"/>
</svg>
