<svg width="20" height="21" viewBox="0 0 20 21" fill="none" xmlns="http://www.w3.org/2000/svg">
<path fill-rule="evenodd" clip-rule="evenodd" d="M8.02739 7.89478H11.5645V9.74478C12.0741 8.68078 13.3807 7.72478 15.3436 7.72478C19.1064 7.72478 19.9998 9.84278 19.9998 13.7288V20.9258H16.1902V14.6138C16.1902 12.4008 15.6807 11.1528 14.3836 11.1528C12.5845 11.1528 11.8369 12.4978 11.8369 14.6128V20.9258H8.02739V7.89478ZM1.49501 20.7558H5.30453V7.72478H1.49501V20.7558ZM5.85024 3.47578C5.85039 3.81106 5.78706 4.14302 5.66395 4.45237C5.54083 4.76172 5.36039 5.04229 5.1331 5.27778C4.67253 5.75841 4.04911 6.02743 3.39977 6.02578C2.75157 6.02532 2.12959 5.75698 1.66834 5.27878C1.44187 5.04249 1.26204 4.76161 1.13914 4.45221C1.01625 4.14282 0.9527 3.81101 0.952148 3.47578C0.952148 2.79878 1.20929 2.15078 1.66929 1.67278C2.13013 1.19394 2.75238 0.925482 3.40072 0.925782C4.05024 0.925782 4.6731 1.19478 5.1331 1.67278C5.59215 2.15078 5.85024 2.79878 5.85024 3.47578Z" fill="#0AC75A" fill-opacity="0.8"/>
</svg>
