<svg width="14" height="18" viewBox="0 0 14 18" fill="none" xmlns="http://www.w3.org/2000/svg">
<path fill-rule="evenodd" clip-rule="evenodd" d="M12.9375 15.2498L3.56249 8.99978L12.9375 2.74978C13.0606 2.66771 13.1664 2.56218 13.2487 2.43924C13.331 2.3163 13.3883 2.17834 13.4173 2.03325C13.4464 1.88816 13.4465 1.73877 13.4178 1.59362C13.3891 1.44847 13.3321 1.3104 13.25 1.18728C13.1679 1.06417 13.0624 0.958425 12.9395 0.876091C12.8165 0.793758 12.6786 0.736446 12.5335 0.707427C12.3884 0.678409 12.239 0.678253 12.0938 0.706967C11.9487 0.735682 11.8106 0.792706 11.6875 0.874782L1.05999 7.95978C0.888797 8.07394 0.748427 8.22859 0.651343 8.41001C0.554259 8.59143 0.503464 8.79402 0.503464 8.99978C0.503464 9.20555 0.554259 9.40813 0.651343 9.58956C0.748427 9.77098 0.888797 9.92563 1.05999 10.0398L11.6875 17.1248C11.8106 17.2069 11.9487 17.2639 12.0938 17.2926C12.239 17.3213 12.3884 17.3212 12.5335 17.2921C12.6786 17.2631 12.8165 17.2058 12.9395 17.1235C13.0624 17.0411 13.1679 16.9354 13.25 16.8123C13.3321 16.6892 13.3891 16.5511 13.4178 16.4059C13.4465 16.2608 13.4464 16.1114 13.4173 15.9663C13.3883 15.8212 13.331 15.6833 13.2487 15.5603C13.1664 15.4374 13.0606 15.3319 12.9375 15.2498Z" fill="#09B451"/>
</svg>
