<svg width="21" height="23" viewBox="0 0 21 23" fill="none" xmlns="http://www.w3.org/2000/svg">
<path d="M10.4762 0.925781C4.6909 0.925781 0 5.85123 0 11.9258C0 18.0003 4.6909 22.9258 10.4762 22.9258C16.2615 22.9258 20.9524 18.0003 20.9524 11.9258C20.9524 5.85123 16.2615 0.925781 10.4762 0.925781ZM15.5108 9.21752C15.5179 9.33292 15.5179 9.45324 15.5179 9.57109C15.5179 13.1756 12.9035 17.3276 8.12606 17.3276C6.65285 17.3276 5.2872 16.8782 4.13669 16.1048C4.34715 16.1294 4.54826 16.1392 4.76339 16.1392C5.97938 16.1392 7.09715 15.707 7.9881 14.9753C6.84694 14.9508 5.88818 14.1651 5.5608 13.0847C5.96067 13.1461 6.32079 13.1461 6.73236 13.0356C6.14477 12.9103 5.61663 12.5752 5.23767 12.0873C4.8587 11.5994 4.65229 10.9888 4.65349 10.3593V10.3249C4.99724 10.5287 5.40179 10.6539 5.82504 10.6711C5.46923 10.4221 5.17743 10.0848 4.97551 9.68902C4.7736 9.29327 4.66781 8.85131 4.66752 8.40234C4.66752 7.89408 4.79379 7.43002 5.02062 7.02734C5.67282 7.87036 6.48666 8.55984 7.40925 9.05096C8.33184 9.54209 9.34254 9.82388 10.3756 9.87801C10.0085 8.02422 11.3274 6.524 12.9128 6.524C13.6611 6.524 14.3346 6.85301 14.8093 7.38337C15.3963 7.26797 15.9575 7.03716 16.4579 6.72779C16.2638 7.35882 15.8569 7.89163 15.3168 8.22801C15.8406 8.16908 16.3457 8.01685 16.8134 7.80324C16.4602 8.34833 16.0183 8.83203 15.5108 9.21752Z" fill="#0AC75A" fill-opacity="0.8"/>
</svg>
