<svg width="23" height="23" viewBox="0 0 23 23" fill="none" xmlns="http://www.w3.org/2000/svg">
<path fill-rule="evenodd" clip-rule="evenodd" d="M7.41715 0.991781C8.59015 0.937781 8.96415 0.925781 11.9521 0.925781C14.9401 0.925781 15.3141 0.938781 16.4861 0.991781C17.6581 1.04478 18.4581 1.23178 19.1581 1.50278C19.8911 1.77978 20.5561 2.21278 21.1061 2.77278C21.6661 3.32178 22.0982 3.98578 22.3741 4.71978C22.6461 5.41978 22.8321 6.21978 22.8861 7.38978C22.9401 8.56478 22.9521 8.93878 22.9521 11.9258C22.9521 14.9138 22.9391 15.2878 22.8861 16.4608C22.8331 17.6308 22.6461 18.4308 22.3741 19.1308C22.0981 19.8649 21.6654 20.53 21.1061 21.0798C20.5561 21.6398 19.8911 22.0718 19.1581 22.3478C18.4581 22.6198 17.6581 22.8058 16.4881 22.8598C15.3141 22.9138 14.9401 22.9258 11.9521 22.9258C8.96415 22.9258 8.59015 22.9128 7.41715 22.8598C6.24715 22.8068 5.44715 22.6198 4.74715 22.3478C4.01307 22.0717 3.34797 21.639 2.79815 21.0798C2.23853 20.5305 1.80546 19.8657 1.52915 19.1318C1.25815 18.4318 1.07215 17.6318 1.01815 16.4618C0.964148 15.2868 0.952148 14.9128 0.952148 11.9258C0.952148 8.93778 0.965148 8.56378 1.01815 7.39178C1.07115 6.21978 1.25815 5.41978 1.52915 4.71978C1.80587 3.98586 2.23927 3.32109 2.79915 2.77178C3.34819 2.21228 4.01262 1.77922 4.74615 1.50278C5.44615 1.23178 6.24615 1.04578 7.41615 0.991781H7.41715ZM16.3971 2.97178C15.2371 2.91878 14.8891 2.90778 11.9521 2.90778C9.01515 2.90778 8.66715 2.91878 7.50715 2.97178C6.43415 3.02078 5.85215 3.19978 5.46415 3.35078C4.95115 3.55078 4.58415 3.78778 4.19915 4.17278C3.83419 4.52783 3.55333 4.96006 3.37715 5.43778C3.22615 5.82578 3.04715 6.40778 2.99815 7.48078C2.94515 8.64078 2.93415 8.98878 2.93415 11.9258C2.93415 14.8628 2.94515 15.2108 2.99815 16.3708C3.04715 17.4438 3.22615 18.0258 3.37715 18.4138C3.55315 18.8908 3.83415 19.3238 4.19915 19.6788C4.55415 20.0438 4.98715 20.3248 5.46415 20.5008C5.85215 20.6518 6.43415 20.8308 7.50715 20.8798C8.66715 20.9328 9.01415 20.9438 11.9521 20.9438C14.8901 20.9438 15.2371 20.9328 16.3971 20.8798C17.4701 20.8308 18.0521 20.6518 18.4401 20.5008C18.9531 20.3008 19.3201 20.0638 19.7051 19.6788C20.0701 19.3238 20.3511 18.8908 20.5271 18.4138C20.6781 18.0258 20.8571 17.4438 20.9061 16.3708C20.9591 15.2108 20.9701 14.8628 20.9701 11.9258C20.9701 8.98878 20.9591 8.64078 20.9061 7.48078C20.8571 6.40778 20.6781 5.82578 20.5271 5.43778C20.3271 4.92478 20.0901 4.55778 19.7051 4.17278C19.3501 3.80785 18.9179 3.52699 18.4401 3.35078C18.0521 3.19978 17.4701 3.02078 16.3971 2.97178ZM10.5471 15.3168C11.3318 15.6434 12.2055 15.6875 13.0191 15.4415C13.8326 15.1955 14.5355 14.6747 15.0078 13.968C15.48 13.2614 15.6922 12.4127 15.6082 11.5669C15.5242 10.7211 15.1492 9.93075 14.5471 9.33078C14.1634 8.94726 13.6994 8.65359 13.1885 8.47093C12.6776 8.28826 12.1326 8.22114 11.5926 8.2744C11.0527 8.32765 10.5313 8.49996 10.066 8.77891C9.6006 9.05787 9.20289 9.43653 8.90145 9.88763C8.60001 10.3387 8.40234 10.8511 8.32266 11.3877C8.24299 11.9244 8.2833 12.4721 8.44069 12.9913C8.59808 13.5105 8.86863 13.9884 9.23287 14.3905C9.59711 14.7926 10.046 15.109 10.5471 15.3168ZM7.95415 7.92778C8.47917 7.40276 9.10247 6.98628 9.78845 6.70214C10.4744 6.418 11.2097 6.27176 11.9521 6.27176C12.6946 6.27176 13.4299 6.418 14.1159 6.70214C14.8018 6.98628 15.4251 7.40276 15.9501 7.92778C16.4752 8.45281 16.8916 9.0761 17.1758 9.76208C17.4599 10.4481 17.6062 11.1833 17.6062 11.9258C17.6062 12.6683 17.4599 13.4035 17.1758 14.0895C16.8916 14.7755 16.4752 15.3988 15.9501 15.9238C14.8898 16.9841 13.4517 17.5798 11.9521 17.5798C10.4526 17.5798 9.01448 16.9841 7.95415 15.9238C6.89381 14.8634 6.29812 13.4253 6.29812 11.9258C6.29812 10.4262 6.89381 8.98812 7.95415 7.92778ZM18.8601 7.11378C18.9903 6.99105 19.0944 6.84346 19.1665 6.67976C19.2385 6.51605 19.277 6.33955 19.2796 6.16071C19.2822 5.98187 19.2489 5.80433 19.1816 5.63859C19.1144 5.47285 19.0146 5.32229 18.8881 5.19582C18.7616 5.06935 18.6111 4.96954 18.4453 4.9023C18.2796 4.83506 18.1021 4.80176 17.9232 4.80436C17.7444 4.80697 17.5679 4.84544 17.4042 4.91748C17.2405 4.98952 17.0929 5.09368 16.9701 5.22378C16.7315 5.47681 16.6008 5.8129 16.6059 6.16071C16.6109 6.50852 16.7513 6.84066 16.9973 7.08662C17.2433 7.33259 17.5754 7.47301 17.9232 7.47808C18.271 7.48315 18.6071 7.35247 18.8601 7.11378Z" fill="#0AC75A" fill-opacity="0.8"/>
</svg>
