<svg width="14" height="17" viewBox="0 0 14 17" fill="none" xmlns="http://www.w3.org/2000/svg">
<path fill-rule="evenodd" clip-rule="evenodd" d="M12.9375 14.6814L3.56249 8.43142L12.9375 2.18142C13.0606 2.09935 13.1664 1.99382 13.2487 1.87088C13.331 1.74794 13.3883 1.60999 13.4173 1.46489C13.4464 1.3198 13.4465 1.17042 13.4178 1.02526C13.3891 0.880112 13.3321 0.742037 13.25 0.618922C13.1679 0.495808 13.0624 0.390065 12.9395 0.307732C12.8165 0.225398 12.6786 0.168086 12.5335 0.139068C12.3884 0.11005 12.239 0.109893 12.0938 0.138608C11.9487 0.167323 11.8106 0.224346 11.6875 0.306422L1.05999 7.39142C0.888797 7.50558 0.748427 7.66023 0.651343 7.84165C0.554259 8.02307 0.503464 8.22566 0.503464 8.43142C0.503464 8.63719 0.554259 8.83977 0.651343 9.0212C0.748427 9.20262 0.888797 9.35727 1.05999 9.47142L11.6875 16.5564C11.8106 16.6385 11.9487 16.6955 12.0938 16.7242C12.239 16.753 12.3884 16.7528 12.5335 16.7238C12.6786 16.6948 12.8165 16.6374 12.9395 16.5551C13.0624 16.4728 13.1679 16.367 13.25 16.2439C13.3321 16.1208 13.3891 15.9827 13.4178 15.8376C13.4465 15.6924 13.4464 15.543 13.4173 15.398C13.3883 15.2529 13.331 15.1149 13.2487 14.992C13.1664 14.869 13.0606 14.7635 12.9375 14.6814Z" fill="#09B451"/>
</svg>
