<svg width="19" height="20" viewBox="0 0 19 20" fill="none" xmlns="http://www.w3.org/2000/svg">
<path d="M17.8625 13.7949H16.5078C16.3766 13.7949 16.2524 13.8628 16.182 13.9753C15.8844 14.4464 15.5375 14.8824 15.1391 15.2808C14.4524 15.9675 13.6531 16.5066 12.7649 16.8816C11.8438 17.2706 10.8664 17.4675 9.85861 17.4675C8.84845 17.4675 7.87111 17.2706 6.95236 16.8816C6.06408 16.5066 5.26486 15.9675 4.57814 15.2808C3.89142 14.5941 3.35236 13.7949 2.97736 12.9066C2.5883 11.9878 2.39142 11.0105 2.39142 10.0003C2.39142 8.99017 2.5883 8.01517 2.97736 7.09407C3.35236 6.20579 3.89142 5.40657 4.57814 4.71986C5.26486 4.03314 6.06408 3.49407 6.95236 3.11907C7.87111 2.73001 8.8508 2.53314 9.85861 2.53314C10.8688 2.53314 11.8461 2.73001 12.7649 3.11907C13.6531 3.49407 14.4524 4.03314 15.1391 4.71986C15.5375 5.11829 15.8844 5.55423 16.182 6.02532C16.2524 6.13782 16.3766 6.20579 16.5078 6.20579H17.8625C18.0242 6.20579 18.1274 6.03704 18.0547 5.89407C16.5266 2.85423 13.4281 0.878449 9.96877 0.838606C4.90392 0.775324 0.696891 4.92142 0.687516 9.98158C0.678141 15.0511 4.78673 19.1644 9.85627 19.1644C13.3602 19.1644 16.5102 17.1816 18.0547 14.1066C18.1274 13.9636 18.0219 13.7949 17.8625 13.7949Z" fill="#09B451"/>
</svg>
