<svg width="14" height="18" viewBox="0 0 14 18" fill="none" xmlns="http://www.w3.org/2000/svg">
<path fill-rule="evenodd" clip-rule="evenodd" d="M1.06255 15.2498L10.4376 8.99978L1.06255 2.74978C0.939437 2.66771 0.833694 2.56218 0.75136 2.43924C0.669026 2.3163 0.611714 2.17834 0.582696 2.03325C0.553678 1.88816 0.553523 1.73877 0.582238 1.59362C0.610952 1.44847 0.667975 1.3104 0.750051 1.18728C0.832128 1.06417 0.937649 0.958425 1.06059 0.876091C1.18353 0.793758 1.32149 0.736446 1.46658 0.707427C1.61167 0.678409 1.76106 0.678253 1.90621 0.706967C2.05136 0.735682 2.18944 0.792706 2.31255 0.874782L12.9401 7.95978C13.1112 8.07394 13.2516 8.22859 13.3487 8.41001C13.4458 8.59143 13.4966 8.79402 13.4966 8.99978C13.4966 9.20555 13.4458 9.40813 13.3487 9.58956C13.2516 9.77098 13.1112 9.92563 12.9401 10.0398L2.31255 17.1248C2.18944 17.2069 2.05136 17.2639 1.90621 17.2926C1.76106 17.3213 1.61167 17.3212 1.46658 17.2921C1.32149 17.2631 1.18353 17.2058 1.06059 17.1235C0.937649 17.0411 0.832128 16.9354 0.750051 16.8123C0.667975 16.6892 0.610952 16.5511 0.582238 16.4059C0.553523 16.2608 0.553678 16.1114 0.582696 15.9663C0.611714 15.8212 0.669026 15.6833 0.75136 15.5603C0.833694 15.4374 0.939437 15.3319 1.06255 15.2498Z" fill="#09B451"/>
</svg>
